<svg width="40" height="40" viewBox="0 0 40 40" fill="none" xmlns="http://www.w3.org/2000/svg">
<path d="M20 19.3548C21.0689 19.3548 21.9355 18.4883 21.9355 17.4194C21.9355 16.3505 21.0689 15.4839 20 15.4839V19.3548ZM1.93548 15.4839C0.866555 15.4839 0 16.3505 0 17.4194C0 18.4883 0.866555 19.3548 1.93548 19.3548V15.4839ZM20 15.4839C18.9311 15.4839 18.0645 16.3505 18.0645 17.4194C18.0645 18.4883 18.9311 19.3548 20 19.3548V15.4839ZM38.0645 19.3548C39.1334 19.3548 40 18.4883 40 17.4194C40 16.3505 39.1334 15.4839 38.0645 15.4839V19.3548ZM18.0645 17.4194C18.0645 18.4883 18.9311 19.3548 20 19.3548C21.0689 19.3548 21.9355 18.4883 21.9355 17.4194H18.0645ZM21.9355 1.93548C21.9355 0.866555 21.0689 0 20 0C18.9311 0 18.0645 0.866555 18.0645 1.93548H21.9355ZM3.87097 17.4194C3.87097 16.3505 3.00441 15.4839 1.93548 15.4839C0.866555 15.4839 0 16.3505 0 17.4194H3.87097ZM40 17.4194C40 16.3505 39.1334 15.4839 38.0645 15.4839C36.9956 15.4839 36.129 16.3505 36.129 17.4194H40ZM0 17.4194C0 18.4883 0.866555 19.3548 1.93548 19.3548C3.00441 19.3548 3.87097 18.4883 3.87097 17.4194H0ZM20 3.87097C21.0689 3.87097 21.9355 3.00441 21.9355 1.93548C21.9355 0.866555 21.0689 0 20 0V3.87097ZM36.129 17.4194C36.129 18.4883 36.9956 19.3548 38.0645 19.3548C39.1334 19.3548 40 18.4883 40 17.4194H36.129ZM20 0C18.9311 0 18.0645 0.866555 18.0645 1.93548C18.0645 3.00441 18.9311 3.87097 20 3.87097V0ZM20 15.4839H1.93548V19.3548H20V15.4839ZM20 19.3548H38.0645V15.4839H20V19.3548ZM21.9355 17.4194V1.93548H18.0645V17.4194H21.9355ZM0 17.4194V27.7419H3.87097V17.4194H0ZM0 27.7419C0 34.512 5.48813 40 12.2581 40V36.129C7.62599 36.129 3.87097 32.3739 3.87097 27.7419H0ZM12.2581 40H27.7419V36.129H12.2581V40ZM27.7419 40C34.512 40 40 34.512 40 27.7419H36.129C36.129 32.3739 32.3739 36.129 27.7419 36.129V40ZM40 27.7419V17.4194H36.129V27.7419H40ZM3.87097 17.4194V12.2581H0V17.4194H3.87097ZM3.87097 12.2581C3.87097 7.62599 7.62599 3.87097 12.2581 3.87097V0C5.48813 0 0 5.48813 0 12.2581H3.87097ZM12.2581 3.87097H20V0H12.2581V3.87097ZM40 17.4194V12.2581H36.129V17.4194H40ZM40 12.2581C40 5.48813 34.512 0 27.7419 0V3.87097C32.3739 3.87097 36.129 7.62599 36.129 12.2581H40ZM27.7419 0H20V3.87097H27.7419V0Z" fill="white"/>
</svg>
