<svg width="41" height="42" viewBox="0 0 41 42" fill="none" xmlns="http://www.w3.org/2000/svg">
<path d="M14.2459 41.4586H1.73962C0.970874 41.4586 0.333374 40.8211 0.333374 40.0523V28.8023C0.333374 25.9523 2.63962 23.6461 5.48962 23.6461H14.2459C15.0146 23.6461 15.6521 24.2836 15.6521 25.0523V40.0523C15.6521 40.8211 15.0146 41.4586 14.2459 41.4586ZM3.14587 38.6461H12.8396V26.4586H5.48962C4.19587 26.4586 3.14587 27.5086 3.14587 28.8023V38.6461Z" fill="white"/>
<path d="M26.7337 41.4586H14.2274C13.4587 41.4586 12.8212 40.8211 12.8212 40.0523V21.3023C12.8212 18.4523 15.1274 16.1461 17.9775 16.1461H22.9837C25.8337 16.1461 28.14 18.4523 28.14 21.3023V40.0523C28.14 40.8211 27.5212 41.4586 26.7337 41.4586ZM15.6524 38.6461H25.3462V21.3023C25.3462 20.0086 24.2962 18.9586 23.0025 18.9586H17.9963C16.7024 18.9586 15.6524 20.0086 15.6524 21.3023V38.6461Z" fill="white"/>
<path d="M39.2398 41.4586H26.7337C25.965 41.4586 25.3273 40.8211 25.3273 40.0523V30.6773C25.3273 29.9086 25.9648 29.2711 26.7336 29.2711H35.4898C38.3398 29.2711 40.6461 31.5773 40.6461 34.4273V40.0523C40.6461 40.8211 40.0086 41.4586 39.2398 41.4586ZM28.1398 38.6461H37.8336V34.4273C37.8336 33.1336 36.7836 32.0836 35.4898 32.0836H28.1398V38.6461Z" fill="white"/>
<path d="M23.6769 14.4586C23.2269 14.4586 22.6644 14.3273 22.0269 13.9523L20.4894 13.0336L18.9707 13.9336C17.4332 14.8523 16.4207 14.3086 16.0457 14.0461C15.6707 13.7836 14.8644 12.9586 15.2582 11.2336L15.6144 9.67728L14.3394 8.40228C13.5519 7.61478 13.2707 6.67728 13.5519 5.81478C13.8332 4.95228 14.6019 4.35226 15.6894 4.16476L17.3207 3.88353L18.2394 2.04607C19.2519 0.0398192 21.7082 0.0398192 22.7019 2.04607L23.6207 3.88353L25.2519 4.16476C26.3394 4.35226 27.1269 4.95228 27.3894 5.81478C27.6707 6.67728 27.3707 7.61478 26.6019 8.40228L25.3269 9.67728L25.6832 11.2336C26.0769 12.9773 25.2707 13.7836 24.8957 14.0648C24.7269 14.2148 24.2957 14.4586 23.6769 14.4586ZM20.4894 10.2023C20.9394 10.2023 21.3894 10.3148 21.7644 10.5398L22.8144 11.1586L22.5894 10.146C22.4019 9.35853 22.6832 8.4023 23.2644 7.82105L24.2207 6.86478L23.0394 6.65855C22.2894 6.5273 21.5582 5.98355 21.2207 5.30855L20.4894 3.9023L19.7769 5.30855C19.4394 5.98355 18.7082 6.5273 17.9582 6.65855L16.7769 6.84607L17.7332 7.80228C18.3144 8.38353 18.5769 9.33982 18.4082 10.1273L18.1832 11.1398L19.2332 10.5211C19.5894 10.2961 20.0394 10.2023 20.4894 10.2023Z" fill="white"/>
</svg>
