<svg width="36" height="34" viewBox="0 0 36 34" fill="none" xmlns="http://www.w3.org/2000/svg">
<path d="M16.4065 4.24087C16.7992 3.35983 16.9956 2.9193 17.2691 2.78365C17.5066 2.66579 17.7855 2.66579 18.0229 2.78365C18.2964 2.9193 18.4928 3.35983 18.8855 4.24087L22.0136 11.2585C22.1298 11.519 22.1878 11.6492 22.2777 11.7489C22.3571 11.8372 22.4543 11.9078 22.5627 11.9561C22.6853 12.0107 22.8271 12.0257 23.1108 12.0556L30.7516 12.862C31.7109 12.9633 32.1904 13.0139 32.404 13.232C32.5894 13.4215 32.6756 13.6868 32.6369 13.9491C32.5925 14.2511 32.2342 14.5739 31.5177 15.2197L25.81 20.3633C25.5983 20.5542 25.4923 20.6497 25.4253 20.7659C25.3659 20.8688 25.3287 20.983 25.3164 21.1011C25.3023 21.2346 25.3318 21.374 25.391 21.653L26.9852 29.169C27.1854 30.1127 27.2855 30.5844 27.144 30.8548C27.021 31.09 26.7954 31.2538 26.534 31.2981C26.2331 31.349 25.8153 31.1081 24.9796 30.6262L18.324 26.7874C18.0771 26.6449 17.9536 26.5738 17.8223 26.5458C17.7061 26.5212 17.586 26.5212 17.4698 26.5458C17.3385 26.5738 17.215 26.6449 16.968 26.7874L10.3124 30.6262C9.47684 31.1081 9.05905 31.349 8.75811 31.2981C8.49668 31.2538 8.271 31.09 8.14812 30.8548C8.00666 30.5844 8.10673 30.1127 8.30688 29.169L9.90103 21.653C9.9602 21.374 9.98978 21.2346 9.97574 21.1011C9.9633 20.983 9.9262 20.8688 9.86683 20.7659C9.79974 20.6497 9.69382 20.5542 9.482 20.3633L3.77446 15.2197C3.05791 14.5739 2.69962 14.2511 2.65508 13.9491C2.6164 13.6868 2.70259 13.4215 2.88807 13.232C3.10161 13.0139 3.58125 12.9633 4.54053 12.862L12.1813 12.0556C12.4649 12.0257 12.6067 12.0107 12.7293 11.9561C12.8378 11.9078 12.9349 11.8372 13.0144 11.7489C13.1042 11.6492 13.1623 11.519 13.2784 11.2585L16.4065 4.24087Z" stroke="white" stroke-width="5" stroke-linecap="round" stroke-linejoin="round"/>
</svg>
