<svg width="45" height="46" viewBox="0 0 45 46" fill="none" xmlns="http://www.w3.org/2000/svg">
<path d="M22.5 0.5C10.08 0.5 0 10.58 0 23C0 35.42 10.08 45.5 22.5 45.5C34.92 45.5 45 35.42 45 23C45 10.58 34.92 0.5 22.5 0.5ZM22.5 7.25C26.235 7.25 29.25 10.265 29.25 14C29.25 17.735 26.235 20.75 22.5 20.75C18.765 20.75 15.75 17.735 15.75 14C15.75 10.265 18.765 7.25 22.5 7.25ZM22.5 39.2C16.875 39.2 11.9025 36.32 9 31.955C9.0675 27.4775 18 25.025 22.5 25.025C26.9775 25.025 35.9325 27.4775 36 31.955C33.0975 36.32 28.125 39.2 22.5 39.2Z" fill="#203E97"/>
</svg>
