<svg width="51" height="50" viewBox="0 0 51 50" fill="none" xmlns="http://www.w3.org/2000/svg">
<path fill-rule="evenodd" clip-rule="evenodd" d="M27.7293 27.0833C32.3316 27.0833 36.0627 30.8144 36.0627 35.4167V39.5833C36.0627 40.734 35.13 41.6667 33.9793 41.6667C32.8287 41.6667 31.896 40.734 31.896 39.5833V35.4167C31.896 33.1154 30.0306 31.25 27.7293 31.25H13.146C10.8448 31.25 8.97933 33.1154 8.97933 35.4167V39.5833C8.97933 40.734 8.04658 41.6667 6.896 41.6667C5.74541 41.6667 4.81266 40.734 4.81266 39.5833V35.4167C4.81266 30.8144 8.54362 27.0833 13.146 27.0833H27.7293ZM40.2291 27.0838C43.681 27.0838 46.4791 29.8821 46.4791 33.3338V37.5004C46.4791 38.651 45.5464 39.5838 44.3958 39.5838C43.2454 39.5838 42.3125 38.651 42.3125 37.5004V33.3338C42.3125 32.1833 41.3797 31.2504 40.2291 31.2504H37.2795C36.5547 29.5917 35.4106 28.1581 33.981 27.0838H40.2291ZM20.4376 6.25C25.6154 6.25 29.8127 10.4473 29.8127 15.625C29.8127 20.8027 25.6154 25 20.4376 25C15.2599 25 11.0626 20.8027 11.0626 15.625C11.0626 10.4473 15.2599 6.25 20.4376 6.25ZM38.146 12.5C41.5979 12.5 44.396 15.2982 44.396 18.75C44.396 22.2019 41.5979 25 38.146 25C34.6941 25 31.896 22.2019 31.896 18.75C31.896 15.2982 34.6941 12.5 38.146 12.5ZM20.4376 10.4167C17.5611 10.4167 15.2293 12.7485 15.2293 15.625C15.2293 18.5015 17.5611 20.8333 20.4376 20.8333C23.3141 20.8333 25.646 18.5015 25.646 15.625C25.646 12.7485 23.3141 10.4167 20.4376 10.4167ZM38.146 16.6667C36.9954 16.6667 36.0627 17.5994 36.0627 18.75C36.0627 19.9006 36.9954 20.8333 38.146 20.8333C39.2966 20.8333 40.2293 19.9006 40.2293 18.75C40.2293 17.5994 39.2966 16.6667 38.146 16.6667Z" fill="white"/>
</svg>
