<svg width="43" height="42" viewBox="0 0 43 42" fill="none" xmlns="http://www.w3.org/2000/svg">
<path d="M33.6503 15.9056C34.2884 14.9483 34.0297 13.6548 33.0724 13.0166C32.1151 12.3784 30.8215 12.637 30.1834 13.5944L24.4011 22.2677L17.4436 17.5713C16.1272 16.6827 14.3322 17.1123 13.5609 18.5009L9.26225 26.2384C8.70348 27.244 9.06585 28.5123 10.0717 29.0713C11.0775 29.63 12.3458 29.2675 12.9046 28.2617L16.4307 21.9146L23.2857 26.5417C24.5305 27.3821 26.2213 27.049 27.0545 25.7992L33.6503 15.9056Z" fill="white"/>
<path fill-rule="evenodd" clip-rule="evenodd" d="M11.0834 0.166687C5.33046 0.166687 0.666748 4.8304 0.666748 10.5834V31.4167C0.666748 37.1696 5.33046 41.8334 11.0834 41.8334H31.9167C37.6697 41.8334 42.3334 37.1696 42.3334 31.4167V10.5834C42.3334 4.8304 37.6697 0.166687 31.9167 0.166687H11.0834ZM4.83342 10.5834C4.83342 7.13158 7.63164 4.33335 11.0834 4.33335H31.9167C35.3686 4.33335 38.1668 7.13158 38.1668 10.5834V31.4167C38.1668 34.8686 35.3686 37.6667 31.9167 37.6667H11.0834C7.63164 37.6667 4.83342 34.8686 4.83342 31.4167V10.5834Z" fill="white"/>
</svg>
